<svg width="182" height="93" viewBox="0 0 182 93" fill="none" xmlns="http://www.w3.org/2000/svg">
<path d="M153.347 45.8665H167.883C167.883 45.8665 177.421 65.536 179.299 73.9641H153.347V45.8665Z" fill="#E7816B"/>
<path fill-rule="evenodd" clip-rule="evenodd" d="M153.346 74.2315H179.299C179.38 74.232 179.458 74.1956 179.509 74.1327C179.558 74.068 179.577 73.9855 179.561 73.906C177.695 65.5127 168.221 45.9478 168.122 45.7502C168.08 45.6566 167.986 45.5971 167.883 45.5991H153.346C153.198 45.5991 153.078 45.7188 153.078 45.8665V73.9641C153.078 74.1118 153.198 74.2315 153.346 74.2315ZM178.966 73.7025H153.632L153.615 46.128H167.714C168.589 47.9473 177.041 65.6232 178.966 73.7025Z" fill="#231F20"/>
<path d="M154.321 67.4773L165.666 72.4935C165.666 72.4935 155.691 29.481 136.208 10.0673C136.208 10.0673 129.401 15.2985 124.489 28.8707C123.241 32.3175 124.302 30.1494 124.221 30.7307L122.896 40.1063L154.321 67.4773Z" fill="#E7816B"/>
<path fill-rule="evenodd" clip-rule="evenodd" d="M165.562 72.7609C165.597 72.7663 165.632 72.7663 165.667 72.7609C165.731 72.7601 165.792 72.7375 165.842 72.6969C165.918 72.6334 165.952 72.532 165.929 72.4354C165.83 72.0052 155.709 29.1497 136.395 9.88124C136.295 9.79243 136.145 9.79243 136.045 9.88124C135.975 9.93355 129.121 15.3159 124.238 28.8009C123.463 30.9503 123.533 30.9922 123.754 31.1257L123.754 31.1259C123.797 31.1517 123.845 31.1676 123.894 31.1724L122.611 40.0597C122.598 40.15 122.634 40.2402 122.704 40.2981L154.128 67.6982C154.146 67.7169 154.168 67.731 154.193 67.7389L165.562 72.7609ZM165.299 72.0343L154.467 67.2506L123.177 39.9435L124.501 30.7423C124.545 30.5935 124.48 30.434 124.343 30.3587H124.273C124.304 30.2721 124.343 30.157 124.391 30.0136C124.478 29.7528 124.596 29.3984 124.758 28.9521C129.138 16.8156 135.1 11.3634 136.208 10.4218C154.152 28.5103 164.086 67.0937 165.299 72.0343Z" fill="#231F20"/>
<path d="M124.775 36.5665C124.775 36.5665 127.884 21.9073 136.343 13.7466C136.343 13.7466 149.374 24.7903 161.974 69.0118L121.013 66.7391C121.013 66.7391 121.818 44.2622 124.775 36.5665Z" fill="#231F20"/>
<path fill-rule="evenodd" clip-rule="evenodd" d="M121.012 67.0297L161.974 69.3024C162.07 69.328 162.172 69.3015 162.242 69.2327C162.302 69.1595 162.322 69.0616 162.295 68.9711C149.812 25.1449 136.704 13.671 136.57 13.5605C136.46 13.4579 136.289 13.4579 136.179 13.5605C127.884 21.5411 124.658 35.8399 124.512 36.5025C121.598 44.1011 120.784 65.523 120.739 66.7065L120.738 66.7275C120.732 66.8859 120.854 67.0204 121.012 67.0297ZM161.583 68.7037L121.333 66.4659C121.421 63.8329 122.325 43.7681 125.061 36.671V36.6245C125.09 36.4792 128.182 22.1921 136.348 14.1476C137.118 14.88 140.128 17.949 144.212 24.9879C148.581 32.486 155.126 46.1454 161.583 68.7037Z" fill="#231F20"/>
<path d="M110.991 49.2144C110.991 49.2144 117.851 34.9447 126.367 26.6619C126.367 26.6619 137.118 35.0668 144.118 44.0646C151.118 53.0623 157.535 69.0118 157.535 69.0118H111.615L110.991 49.2144Z" fill="white"/>
<path fill-rule="evenodd" clip-rule="evenodd" d="M111.615 69.3024H157.541L157.511 69.2792C157.608 69.2798 157.699 69.2329 157.753 69.1538C157.808 69.0747 157.82 68.9736 157.786 68.8839C157.739 68.7444 151.264 52.7949 144.322 43.8902C137.602 35.269 127.305 27.0783 126.561 26.4862C126.536 26.4667 126.522 26.4554 126.519 26.4527C126.409 26.3563 126.244 26.3563 126.134 26.4527C117.85 34.5297 111.018 48.4368 110.709 49.0655C110.704 49.077 110.7 49.084 110.699 49.0865C110.69 49.1307 110.69 49.1761 110.699 49.2202L111.323 69.0234C111.329 69.1794 111.458 69.3025 111.615 69.3024ZM157.109 68.7212H111.895L111.288 49.2783C111.298 49.2585 111.31 49.2342 111.325 49.2055C112.06 47.736 118.535 34.7934 126.391 27.0455C127.896 28.2487 137.515 36.0491 143.891 44.2447C150.109 52.2718 156.053 66.1927 157.109 68.7212Z" fill="#231F20"/>
<path d="M126.251 29.5043C126.251 29.5043 116.976 38.223 113.575 50.1503C113.575 50.1503 153.364 64.1526 153.009 63.8038C152.653 63.4551 147.099 50.8943 140.759 43.5415C131.793 33.1313 126.251 29.5043 126.251 29.5043Z" fill="#231F20"/>
<path fill-rule="evenodd" clip-rule="evenodd" d="M133.151 57.3229C149.66 63.0831 152.495 64.0538 153.078 64.0538C153.201 64.0538 153.23 64.0131 153.253 63.9608C153.329 63.8527 153.317 63.706 153.224 63.612C153.148 63.5132 152.816 62.8448 152.431 62.0659L152.413 62.0298C150.489 58.1678 146.027 49.2078 140.991 43.3496C132.09 33.0034 126.466 29.3008 126.408 29.2659C126.295 29.1906 126.146 29.2027 126.046 29.295C125.953 29.3822 116.678 38.1998 113.295 50.0689C113.249 50.2164 113.329 50.3737 113.476 50.4234C113.476 50.4234 123.305 53.8819 133.151 57.3229ZM152.431 63.3563C148.388 62.0833 126.181 54.3062 113.931 49.9875C117.075 39.2634 125.026 31.1201 126.291 29.8995C127.341 30.6319 132.638 34.5321 140.566 43.7449C145.557 49.542 149.998 58.4728 151.908 62.3144L151.923 62.3449L152.431 63.3563Z" fill="#231F20"/>
<path d="M116.743 37.0024C116.743 37.0024 135.491 39.8563 146.668 52.6206C152.373 59.1422 157.541 69.0118 157.541 69.0118H134.68L116.743 37.0024Z" fill="#E7816B"/>
<path fill-rule="evenodd" clip-rule="evenodd" d="M134.68 69.2792H157.541C157.637 69.2788 157.725 69.2249 157.768 69.1397C157.815 69.0587 157.815 68.959 157.768 68.8781L157.765 68.8717C157.606 68.5708 152.458 58.8354 146.854 52.4345C135.747 39.7575 116.958 36.7408 116.772 36.7408C116.67 36.7272 116.57 36.7695 116.509 36.8512C116.459 36.9397 116.459 37.0476 116.509 37.136L134.447 69.1455C134.495 69.2285 134.584 69.2795 134.68 69.2792ZM157.097 68.7502H134.837L117.25 37.3627C120.412 37.9556 136.547 41.4664 146.463 52.7949C151.451 58.4912 156.077 66.8612 157.097 68.7502Z" fill="#231F20"/>
<path d="M106.593 50.1677C110.676 44.1576 113.009 40.3504 116.743 37.0024C123.713 41.1261 130.13 46.1143 135.841 51.8475C140.844 56.9318 145.078 62.7137 148.412 69.0118H97.376C97.376 69.0118 102.813 55.7128 106.593 50.1677Z" fill="white"/>
<path fill-rule="evenodd" clip-rule="evenodd" d="M97.3756 69.3024H148.411C148.509 69.3025 148.6 69.2518 148.651 69.1687C148.697 69.0795 148.697 68.9732 148.651 68.8839C145.292 62.5622 141.039 56.7543 136.021 51.6382C130.287 45.8932 123.849 40.8918 116.859 36.7524C116.753 36.6896 116.617 36.7038 116.526 36.7873C113.312 39.6412 111.125 42.8904 108.103 47.3835C107.566 48.2089 106.983 49.0807 106.353 50.0049C102.596 55.5094 97.1598 68.7735 97.1073 68.9072C97.0693 68.9952 97.0803 69.0967 97.1365 69.1745C97.1895 69.2546 97.2794 69.3026 97.3756 69.3024ZM147.933 68.7212H97.8131C98.7523 66.4659 103.477 55.2478 106.837 50.3304L108.616 47.709C111.562 43.3205 113.709 40.1353 116.783 37.3627C123.651 41.4655 129.984 46.399 135.636 52.0509C140.491 57.0129 144.629 62.6234 147.933 68.7212Z" fill="#231F20"/>
<path d="M99.2368 69.0118C99.2368 69.0118 103.198 59.2701 108.121 51.5162C113.132 43.6286 117.005 39.8563 117.005 39.8563C117.005 39.8563 122.879 42.6347 132.586 52.1381C139.218 58.6307 145.378 68.9944 145.378 68.9944L99.2368 69.0118Z" fill="#231F20"/>
<path fill-rule="evenodd" clip-rule="evenodd" d="M99.2366 69.3024H145.378C145.489 69.3111 145.594 69.2542 145.647 69.1571C145.699 69.0672 145.699 68.9564 145.647 68.8665C145.643 68.8621 145.622 68.8272 145.584 68.7642C144.915 67.6665 139.042 58.025 132.813 51.9289C123.188 42.501 117.215 39.5947 117.157 39.5947C117.045 39.5437 116.914 39.5643 116.824 39.6471C116.823 39.6487 116.814 39.657 116.8 39.6719C116.461 40.0145 112.663 43.8608 107.899 51.3592C103.017 59.0259 99.0266 68.8084 98.9916 68.9072C98.9449 68.9902 98.9449 69.0915 98.9916 69.1746C99.0472 69.2547 99.1388 69.3025 99.2366 69.3024ZM144.859 68.7212H99.6741C100.473 66.8437 104.072 58.4331 108.366 51.6731C112.758 44.7562 116.311 40.9781 117.063 40.2109C118.131 40.7689 123.772 43.9134 132.382 52.3474C138.139 57.9797 143.611 66.681 144.859 68.7212Z" fill="#231F20"/>
<path d="M117.833 72.4935H58.2226C58.2226 72.4935 55.3818 46.9185 56.7876 30.0622C58.1934 13.206 66.9376 0.662598 66.9376 0.662598C66.9376 0.662598 89.0459 6.07985 102.34 27.3536C115.634 48.6273 117.833 72.4935 117.833 72.4935Z" fill="white"/>
<path fill-rule="evenodd" clip-rule="evenodd" d="M58.2223 72.7841H117.833C117.921 72.7926 118.008 72.7579 118.066 72.6911C118.123 72.6321 118.151 72.5514 118.142 72.4703L118.142 72.4689C118.111 72.153 115.776 48.267 102.591 27.1734C89.384 6.045 67.229 0.406875 67.0073 0.354562C66.8898 0.320124 66.7636 0.36758 66.6982 0.470812C66.6107 0.58125 57.884 13.3106 56.4957 30.0099C55.2236 45.3108 57.4922 68.0533 57.8811 71.9518C57.9166 72.3081 57.9365 72.507 57.9365 72.5284C57.9515 72.6742 58.0752 72.7849 58.2223 72.7841ZM117.53 72.2029H58.4848C58.1932 69.471 55.7665 45.8025 57.0907 30.0332C58.3973 14.5196 66.0565 2.51681 67.0832 0.970687C69.2823 1.57519 89.6815 7.61438 102.095 27.4815C114.386 47.1452 117.203 69.2966 117.53 72.2029Z" fill="#231F20"/>
<path d="M117.833 72.4935H99.7501C99.7501 72.4935 97.5451 49.412 88.6667 28.9346C79.7884 8.45717 66.9551 0.633545 66.9551 0.633545C66.9551 0.633545 89.0634 6.05079 102.358 27.3245C115.652 48.5983 117.833 72.4935 117.833 72.4935Z" fill="#E7816B"/>
<path fill-rule="evenodd" clip-rule="evenodd" d="M99.75 72.7609H117.833H117.921C117.996 72.7611 118.068 72.7298 118.119 72.6745C118.17 72.6192 118.196 72.5451 118.189 72.4702L118.189 72.4681C118.155 72.1193 115.825 48.2579 102.638 27.185C89.4192 6.06242 67.2759 0.430107 67.0542 0.377795C66.9262 0.34511 66.7937 0.412336 66.745 0.534732C66.6967 0.654268 66.7409 0.791118 66.85 0.860232C66.8524 0.861918 66.861 0.867504 66.8757 0.87704C67.521 1.29491 79.8786 9.29726 88.4334 29.045C97.1834 49.2435 99.4875 72.29 99.4875 72.5225C99.5022 72.6566 99.6147 72.7587 99.75 72.7609ZM117.542 72.2319H99.96C99.6975 69.7151 97.195 47.9996 88.8767 28.8416C81.7659 12.4097 71.9659 4.01642 68.4134 1.36592C73.675 3.06317 91.0467 9.79405 102.095 27.4757C114.433 47.1975 117.233 69.4419 117.542 72.2319Z" fill="#231F20"/>
<path d="M97.3759 72.4935C97.3759 72.4935 93.6076 48.0112 88.6667 34.875C81.4101 15.6938 67.6667 4.68488 67.6667 4.68488C67.6667 4.68488 61.8334 15.6937 60.5209 24.7729C59.6692 30.7714 58.9692 60.5837 60.5792 72.2261L97.3759 72.4935Z" fill="#231F20"/>
<path fill-rule="evenodd" clip-rule="evenodd" d="M60.5792 72.5167L97.3759 72.7841C97.4628 72.7874 97.5466 72.751 97.6034 72.6853C97.6613 72.6203 97.687 72.5328 97.6734 72.447C97.6711 72.4351 97.66 72.3664 97.6404 72.2449C97.2562 69.8608 93.5968 47.1541 88.9234 34.7878C81.7192 15.7402 67.9759 4.58603 67.8359 4.4756C67.7703 4.41877 67.6812 4.39711 67.5967 4.41747C67.512 4.43361 67.4391 4.48701 67.3984 4.56278C67.34 4.64997 61.5184 15.6937 60.2292 24.7322C59.4067 30.5505 58.6775 60.6069 60.2934 72.2668C60.3136 72.409 60.435 72.5153 60.5792 72.5167ZM97.0375 72.2028L60.8359 71.9355C59.2725 60.1477 59.99 30.5737 60.8125 24.8252C61.9559 16.74 66.7859 7.0331 67.7484 5.16728C76.8943 13.3479 83.9632 23.5727 88.375 35.0028C92.9542 47.0987 96.5592 69.2036 97.0375 72.2028Z" fill="#231F20"/>
<path d="M52.4998 20.7041C52.4998 20.7041 64.709 22.814 78.6273 32.4919C102.281 48.9412 110.501 72.4935 110.501 72.4935H48.6265C48.6265 72.4935 50.7498 27.528 52.4998 20.7041Z" fill="#E7816B"/>
<path fill-rule="evenodd" clip-rule="evenodd" d="M48.6267 72.7609H110.518V72.7144C110.605 72.7128 110.685 72.6708 110.736 72.6011C110.786 72.5313 110.801 72.4419 110.775 72.3598C110.773 72.3555 110.768 72.3416 110.759 72.3185C110.341 71.1964 101.785 48.2345 78.8025 32.2536C64.9775 22.6455 52.675 20.4193 52.5525 20.4193C52.4138 20.3965 52.2803 20.4819 52.2433 20.617C50.5108 27.3885 48.4283 70.6219 48.3408 72.4586C48.3403 72.5317 48.3674 72.6022 48.4167 72.6563C48.4674 72.7208 48.5445 72.7592 48.6267 72.7609ZM110.157 72.2261H48.9067C49.0875 68.4655 51.0825 28.1848 52.7392 21.0064C54.53 21.3668 65.8758 23.9126 78.5167 32.7011C100.24 47.8136 108.99 69.2269 110.157 72.2261Z" fill="#231F20"/>
<path d="M91.064 72.4935C91.064 72.4935 89.454 59.6479 78.5749 45.3259C67.6957 31.0039 52.4999 20.7041 52.4999 20.7041C52.4999 20.7041 45.984 29.8065 43.5632 40.6468C41.1424 51.4871 42.9799 72.4935 42.9799 72.4935H91.064Z" fill="white"/>
<path fill-rule="evenodd" clip-rule="evenodd" d="M42.9857 72.7841H91.064C91.1369 72.7801 91.2056 72.749 91.2565 72.6969C91.3105 72.6344 91.3359 72.5522 91.3265 72.4703C91.309 72.3308 89.559 59.3398 78.779 45.1515C68.0773 31.0662 53.0293 20.7215 52.663 20.4697C52.6604 20.4679 52.6585 20.4666 52.6574 20.4658C52.5265 20.3759 52.3476 20.4069 52.2549 20.5356C52.2539 20.537 52.2515 20.5403 52.2478 20.5457C51.9974 20.902 45.6163 29.9837 43.2774 40.5829C41.0589 50.6364 42.4771 69.6023 42.6726 72.2167C42.6863 72.4001 42.694 72.503 42.694 72.5168C42.7089 72.6668 42.8344 72.7819 42.9857 72.7841ZM90.7024 72.2029H43.254C43.0557 69.75 41.6382 50.7257 43.8199 40.6933C46.0132 30.9748 51.549 22.5932 52.5699 21.0936C54.5474 22.4886 68.3374 32.3582 78.3182 45.5061C88.0715 58.3343 90.3582 70.1162 90.7024 72.2029Z" fill="#231F20"/>
<path d="M88.264 70.7556C88.264 70.7556 85.0498 57.5961 72.059 42.1C66.5477 35.5537 60.2243 29.7314 53.2406 24.7729C53.2406 24.7729 47.2148 32.6837 45.704 42.7219C44.4673 50.9582 44.199 65.722 44.1406 70.7556H88.264Z" fill="#231F20"/>
<path fill-rule="evenodd" clip-rule="evenodd" d="M44.1408 71.0462H88.2642C88.349 71.0432 88.4281 71.0027 88.48 70.9358C88.537 70.8658 88.5565 70.7727 88.5325 70.6858C88.5033 70.5522 85.155 57.2822 72.2692 41.914C66.7327 35.3538 60.3908 29.513 53.3925 24.5288C53.2661 24.4421 53.0936 24.4703 53.0017 24.5927C52.9492 24.6566 46.9233 32.6837 45.4183 42.6754C44.1992 50.7896 43.9133 65.0128 43.8492 70.7498C43.848 70.8286 43.8797 70.9043 43.9367 70.959C43.9909 71.0133 44.064 71.0445 44.1408 71.0462ZM87.8792 70.465H44.4383C44.5083 64.5595 44.8 50.7025 45.9958 42.7626C47.3375 33.8462 52.3367 26.5283 53.3108 25.1681C60.1669 30.0962 66.3891 35.8453 71.8375 42.286C83.4458 56.1371 87.255 68.2504 87.8792 70.465Z" fill="#231F20"/>
<path d="M84.7527 72.4935C84.1694 70.2092 81.7369 62.3449 74.2527 51.0163C65.2869 37.4674 52.9961 33.4509 52.9961 33.4509H28.8169V34.3577L45.3369 72.4935H84.7527Z" fill="#E7816B"/>
<path fill-rule="evenodd" clip-rule="evenodd" d="M45.3366 72.7609H84.7524C84.8481 72.7646 84.9387 72.7183 84.9916 72.6388C85.0434 72.5754 85.0609 72.4907 85.0383 72.4121C84.4724 70.2324 82.0399 62.2577 74.4974 50.8536C65.5841 37.3802 53.2291 33.2243 53.1066 33.1836C53.0777 33.1781 53.048 33.1781 53.0191 33.1836H28.8458C28.6999 33.1867 28.5832 33.3055 28.5833 33.4509V34.3577C28.5777 34.3923 28.5777 34.4277 28.5833 34.4623L45.0916 72.5981C45.1322 72.6972 45.2292 72.7617 45.3366 72.7609ZM84.3908 72.2261H45.4999L29.0849 34.3054V33.7241H52.9374C53.7074 33.9857 65.4558 38.2288 74.0074 51.1616C81.1649 61.9787 83.6908 69.6744 84.3908 72.2261Z" fill="#231F20"/>
<path d="M72.0594 72.4935C68.7927 66.8437 53.6669 42.6405 28.8169 33.4509C28.8169 33.4509 21.0469 50.0224 23.2577 72.4935H72.0594Z" fill="white"/>
<path fill-rule="evenodd" clip-rule="evenodd" d="M23.2576 72.7841H72.0593C72.1629 72.7835 72.2583 72.7282 72.3101 72.6388C72.3622 72.5489 72.3622 72.4381 72.3101 72.3482C69.4751 67.4715 54.0576 42.4778 28.9218 33.1778C28.7785 33.1243 28.618 33.1902 28.5543 33.3289C28.5537 33.3302 28.5526 33.3326 28.551 33.3361C28.3565 33.7639 20.7901 50.4089 22.966 72.5226C22.9835 72.6704 23.1083 72.7823 23.2576 72.7841ZM71.5518 72.2029H23.526C21.5835 51.6673 28.041 35.9503 28.9685 33.8404C53.1068 42.8788 68.1685 66.4601 71.5518 72.2029Z" fill="#231F20"/>
<path d="M69.0844 72.4935C67.5852 69.6919 62.0844 61.7811 55.5919 54.5736C43.3944 41.0769 29.8144 36.6536 29.8144 36.6536C23.5085 53.9865 25.7777 67.1809 25.9002 72.4935H69.0844Z" fill="#231F20"/>
<path fill-rule="evenodd" clip-rule="evenodd" d="M25.9175 72.7841H69.0842V72.7958C69.1873 72.796 69.2829 72.742 69.3356 72.6537C69.3884 72.5653 69.3903 72.4558 69.3408 72.3656C67.9641 69.7965 62.5742 61.8799 55.8075 54.3934C43.6975 40.9781 30.0417 36.4211 29.9017 36.3746C29.7524 36.3313 29.5948 36.4098 29.54 36.5548C24.1967 51.2837 25.0133 63.1238 25.4567 69.5175C25.472 69.7365 25.4876 69.9501 25.5028 70.158C25.5682 71.0538 25.6258 71.8436 25.6258 72.4993C25.6258 72.5759 25.6567 72.6492 25.7116 72.7028C25.7665 72.7564 25.8407 72.7857 25.9175 72.7841ZM68.5883 72.2029H26.18C26.1583 71.4914 26.1016 70.6499 26.0376 69.7016C26.0326 69.6273 26.0276 69.5524 26.0225 69.4768C25.585 63.1819 24.78 51.5104 29.9892 37.0256C31.9492 37.7289 44.2925 42.5184 55.3758 54.7654C61.7691 61.845 66.9142 69.2966 68.5883 72.2029Z" fill="#231F20"/>
<path d="M171.657 72.4935L168.863 66.867H78.3766L75.5999 72.4935H18.5791V92.3664H181.177V72.4935H171.657Z" fill="white"/>
<path fill-rule="evenodd" clip-rule="evenodd" d="M18.5793 92.657H181.178C181.336 92.6539 181.463 92.5247 181.463 92.3664V72.4935C181.463 72.333 181.333 72.2029 181.172 72.2029H171.838L169.126 66.7391C169.076 66.6403 168.975 66.5775 168.863 66.5764H78.3768C78.2652 66.5761 78.1633 66.6393 78.1143 66.7391L75.4193 72.2029H18.5793C18.4182 72.2029 18.2876 72.333 18.2876 72.4935V92.3664C18.2876 92.5269 18.4182 92.657 18.5793 92.657ZM180.886 92.0758H18.8709V72.7841H75.6001C75.7112 72.783 75.8125 72.7202 75.8626 72.6214L78.5576 67.1576H168.683L171.395 72.6214C171.445 72.7202 171.546 72.783 171.658 72.7841H180.886V92.0758Z" fill="#231F20"/>
<rect x="58.2227" y="72.4935" width="32.8417" height="19.8671" fill="#D1D3D4"/>
<path fill-rule="evenodd" clip-rule="evenodd" d="M58.2223 92.6571H91.064C91.2251 92.6571 91.3557 92.527 91.3557 92.3664V72.4935C91.3557 72.333 91.2251 72.2029 91.064 72.2029H58.2223C58.0626 72.206 57.9338 72.3343 57.9307 72.4935V92.3664C57.9307 92.527 58.0612 92.6571 58.2223 92.6571ZM90.7723 92.0758H58.514V72.7841H90.7723V92.0758Z" fill="#231F20"/>
<path d="M142.502 73.9641L164.191 92.3664H142.502V73.9641Z" fill="#D1D3D4"/>
<path fill-rule="evenodd" clip-rule="evenodd" d="M142.503 92.6571H164.191C164.313 92.6559 164.421 92.5796 164.462 92.4658C164.504 92.3519 164.47 92.2243 164.378 92.1456L142.689 73.7432C142.602 73.6726 142.483 73.6569 142.38 73.7025C142.277 73.7486 142.21 73.8512 142.211 73.9641V92.3664C142.211 92.527 142.342 92.6571 142.503 92.6571ZM163.398 92.0758H142.794V74.5976L163.398 92.0758Z" fill="#231F20"/>
<rect x="13.8833" y="76.1031" width="44.3392" height="1.9995" fill="white"/>
<path fill-rule="evenodd" clip-rule="evenodd" d="M13.8893 78.3932H58.2227C58.3 78.3932 58.3742 78.3626 58.4289 78.3081C58.4836 78.2536 58.5143 78.1796 58.5143 78.1026V76.1031C58.5143 75.9426 58.3837 75.8124 58.2227 75.8124H13.8893C13.7282 75.8124 13.5977 75.9426 13.5977 76.1031V78.1026C13.6008 78.2618 13.7295 78.3901 13.8893 78.3932ZM57.9252 77.8119H14.1752V76.3937H57.9252V77.8119Z" fill="#231F20"/>
<rect x="9.60156" y="81.1774" width="48.6267" height="3.52238" fill="white"/>
<path fill-rule="evenodd" clip-rule="evenodd" d="M9.60173 84.9845H58.2226C58.3836 84.9845 58.5142 84.8544 58.5142 84.6939V81.1773C58.5142 81.0168 58.3836 80.8867 58.2226 80.8867H9.60173C9.44064 80.8867 9.31006 81.0168 9.31006 81.1773V84.6939C9.31006 84.8544 9.44064 84.9845 9.60173 84.9845ZM57.9309 84.4033H9.89339L9.91673 81.468H57.9309V84.4033Z" fill="#231F20"/>
<rect x="9.60156" y="83.2757" width="48.6267" height="4.38844" fill="#E7816B"/>
<path fill-rule="evenodd" clip-rule="evenodd" d="M9.60183 87.9257H58.2227C58.2933 87.9272 58.3616 87.9004 58.4121 87.8512C58.4626 87.8019 58.491 87.7345 58.491 87.6641V83.2757C58.491 83.128 58.3709 83.0083 58.2227 83.0083H9.60183C9.45363 83.0083 9.3335 83.128 9.3335 83.2757V87.6641C9.33348 87.7345 9.36193 87.8019 9.41243 87.8512C9.46293 87.9004 9.5312 87.9272 9.60183 87.9257ZM57.9602 87.3967H9.86433V83.5431H57.9602V87.3967Z" fill="#231F20"/>
<rect x="13.8833" y="78.1025" width="44.3392" height="3.07481" fill="#E7816B"/>
<path fill-rule="evenodd" clip-rule="evenodd" d="M13.8891 81.439H58.2224C58.293 81.4405 58.3613 81.4137 58.4118 81.3644C58.4623 81.3152 58.4908 81.2478 58.4908 81.1774V78.1026C58.4924 78.0312 58.4646 77.9622 58.4139 77.9118C58.3633 77.8613 58.2941 77.8336 58.2224 77.8352H13.8891C13.8184 77.8352 13.7508 77.8635 13.7014 77.9139C13.652 77.9642 13.625 78.0322 13.6266 78.1026V81.1774C13.6266 81.3219 13.7441 81.439 13.8891 81.439ZM57.9599 80.91H14.1516V78.3641H57.9599V80.91Z" fill="#231F20"/>
<rect x="18.5791" y="74.307" width="39.6492" height="1.79606" fill="#E7816B"/>
<path fill-rule="evenodd" clip-rule="evenodd" d="M18.5559 76.3704H58.2226C58.3708 76.3704 58.4909 76.2507 58.4909 76.103V74.307C58.4909 74.2361 58.4627 74.1681 58.4123 74.1179C58.362 74.0678 58.2938 74.0396 58.2226 74.0396H18.5559C18.4848 74.0396 18.4165 74.0678 18.3662 74.1179C18.3159 74.1681 18.2876 74.2361 18.2876 74.307V76.103C18.2876 76.2507 18.4077 76.3704 18.5559 76.3704ZM57.9601 75.8357H18.8418V74.5744H57.9601V75.8357Z" fill="#231F20"/>
<path d="M75.6001 72.4935H101.36L103.74 66.867H78.3768L75.6001 72.4935Z" fill="#D1D3D4"/>
<path fill-rule="evenodd" clip-rule="evenodd" d="M75.5999 72.7841H101.36C101.473 72.779 101.573 72.7087 101.617 72.6039L103.997 66.9832C104.043 66.8981 104.043 66.7952 103.997 66.71C103.943 66.6269 103.851 66.5765 103.752 66.5764H78.3882C78.2767 66.5761 78.1748 66.6393 78.1257 66.7391L75.349 72.3656C75.299 72.4519 75.299 72.5583 75.349 72.6446C75.4039 72.7301 75.4981 72.7825 75.5999 72.7841ZM101.15 72.2029H76.0665L78.5574 67.1576H103.285L101.15 72.2029Z" fill="#231F20"/>
<rect x="109.305" y="69.8837" width="38.4825" height="1.73794" fill="#E7816B"/>
<rect x="159.997" y="78.585" width="16.1875" height="1.27294" fill="#E7816B"/>
<rect x="0.822266" y="86.0599" width="57.4058" height="6.30656" fill="white"/>
<path fill-rule="evenodd" clip-rule="evenodd" d="M0.822428 92.657H58.2224C58.3835 92.657 58.5141 92.5269 58.5141 92.3664V86.0599C58.5141 85.8993 58.3835 85.7692 58.2224 85.7692H0.822428C0.661345 85.7692 0.530762 85.8993 0.530762 86.0599V92.3664C0.530762 92.5269 0.661345 92.657 0.822428 92.657ZM57.9308 92.0758H1.1141V86.3505H57.9308V92.0758Z" fill="#231F20"/>
<path d="M171.658 74.2314H142.491C142.387 74.2469 142.283 74.2001 142.226 74.1119C142.169 74.0236 142.169 73.9103 142.226 73.822C142.283 73.7338 142.387 73.687 142.491 73.7025H171.658C171.762 73.687 171.865 73.7338 171.923 73.822C171.98 73.9103 171.98 74.0236 171.923 74.1119C171.865 74.2001 171.762 74.2469 171.658 74.2314Z" fill="#231F20"/>
</svg>
